<svg xmlns="http://www.w3.org/2000/svg" data-name="Layer 1" viewBox="0 0 24 24">
  <path d="M24.002 5.513a1.96 1.96 0 0 0-1.258-1.845L14.561.474A6.9 6.9 0 0 0 9.548.467L1.266 3.671C.498 3.968.001 4.692.002 5.516s.497 1.547 1.265 1.843L5 8.799V14.5a.5.5 0 0 0 1 0V9.185l3.502 1.351a6.9 6.9 0 0 0 4.982 0L18 9.18v5.32a.5.5 0 0 0 1 0V8.794l3.737-1.441c.097-.037.175-.1.263-.15V13.5a.5.5 0 0 0 1 0V5.526zm-1.625.907-8.253 3.184a5.9 5.9 0 0 1-4.261 0L1.627 6.426c-.46-.178-.625-.587-.625-.911s.164-.733.625-.911l8.282-3.205a5.9 5.9 0 0 1 4.29.006l8.183 3.194a.96.96 0 0 1 .62.899v.028a.96.96 0 0 1-.623.894Zm.747 10.09a2.38 2.38 0 0 0-2.044-.442c-2.177.527-6.251 1.411-9.079 1.411s-6.902-.884-9.08-1.411a2.37 2.37 0 0 0-2.044.442 2.27 2.27 0 0 0-.876 1.789V21.7c0 .699.319 1.351.876 1.789a2.38 2.38 0 0 0 2.044.442C5.098 23.404 9.172 22.52 12 22.52s6.902.884 9.08 1.411q.286.069.572.069c.53 0 1.046-.176 1.472-.511.557-.438.876-1.09.876-1.789v-3.401c0-.699-.319-1.351-.876-1.789M2.686 22.96a1.39 1.39 0 0 1-1.191-.256A1.27 1.27 0 0 1 1 21.701V18.3c0-.39.181-.756.495-1.003a1.38 1.38 0 0 1 1.19-.256c2.556.619 6.084 1.342 8.814 1.423v3.073c-2.73.082-6.258.804-8.814 1.423ZM23 21.701c0 .39-.181.756-.495 1.003a1.38 1.38 0 0 1-1.19.256c-2.556-.619-6.084-1.342-8.814-1.423v-3.073c2.73-.082 6.258-.804 8.814-1.423a1.39 1.39 0 0 1 1.191.256c.314.248.495.613.495 1.003z"/>
</svg>
